ffprobe version N-86175-g64ea4d1 Copyright (c) 2007-2017 the FFmpeg developers
  built with gcc 6.3.0 (GCC)
  configuration: --enable-gpl --enable-version3 --enable-cuda --enable-cuvid --enable-d3d11va --enable-dxva2 --enable-libmfx --enable-nvenc --enable-avisynth --enable-bzlib --enable-fontconfig --enable-frei0r --enable-gnutls --enable-iconv --enable-libass --enable-libbluray --enable-libbs2b --enable-libcaca --enable-libfreetype --enable-libgme --enable-libgsm --enable-libilbc --enable-libmodplug --enable-libmp3lame --enable-libopencore-amrnb --enable-libopencore-amrwb --enable-libopenh264 --enable-libopenjpeg --enable-libopus --enable-librtmp --enable-libsnappy --enable-libsoxr --enable-libspeex --enable-libtheora --enable-libtwolame --enable-libvidstab --enable-libvo-amrwbenc --enable-libvorbis --enable-libvpx --enable-libwavpack --enable-libwebp --enable-libx264 --enable-libx265 --enable-libxavs --enable-libxvid --enable-libzimg --enable-lzma --enable-zlib
  libavutil      55. 63.100 / 55. 63.100
  libavcodec     57. 96.101 / 57. 96.101
  libavformat    57. 72.101 / 57. 72.101
  libavdevice    57.  7.100 / 57.  7.100
  libavfilter     6. 90.100 /  6. 90.100
  libswscale      4.  7.101 /  4.  7.101
  libswresample   2.  8.100 /  2.  8.100
  libpostproc    54.  6.100 / 54.  6.100
Input #0, matroska,webm, from 'Looper.2012.4K.UHD.Web-DL.2160p.DTS-HD.HuN-verpistike.mkv':
  Metadata:
    title           : Looper (2012) - Release for ULTRAHDCLUB
    encoder         : libebml v0.7.7 + libmatroska v0.8.1
    creation_time   : 2015-12-14T08:47:01.000000Z
  Duration: 01:58:54.67, start: 0.000000, bitrate: 65100 kb/s
    Chapter #0:0: start 0.000000, end 447.447000
    Metadata:
      title           : Chapter 1
    Chapter #0:1: start 447.447000, end 811.684000
    Metadata:
      title           : Chapter 2
    Chapter #0:2: start 811.684000, end 1282.489000
    Metadata:
      title           : Chapter 3
    Chapter #0:3: start 1282.489000, end 1608.105000
    Metadata:
      title           : Chapter 4
    Chapter #0:4: start 1608.105000, end 1911.200000
    Metadata:
      title           : Chapter 5
    Chapter #0:5: start 1911.200000, end 2488.402000
    Metadata:
      title           : Chapter 6
    Chapter #0:6: start 2488.402000, end 2973.427000
    Metadata:
      title           : Chapter 7
    Chapter #0:7: start 2973.427000, end 3250.413000
    Metadata:
      title           : Chapter 8
    Chapter #0:8: start 3250.413000, end 3635.005000
    Metadata:
      title           : Chapter 9
    Chapter #0:9: start 3635.005000, end 4089.918000
    Metadata:
      title           : Chapter 10
    Chapter #0:10: start 4089.918000, end 4523.350000
    Metadata:
      title           : Chapter 11
    Chapter #0:11: start 4523.350000, end 5037.740000
    Metadata:
      title           : Chapter 12
    Chapter #0:12: start 5037.740000, end 5665.868000
    Metadata:
      title           : Chapter 13
    Chapter #0:13: start 5665.868000, end 6064.432000
    Metadata:
      title           : Chapter 14
    Chapter #0:14: start 6064.432000, end 6389.381000
    Metadata:
      title           : Chapter 15
    Chapter #0:15: start 6389.381000, end 7134.669000
    Metadata:
      title           : Chapter 16
    Stream #0:0(eng): Video: h264 (High), yuv420p(progressive), 3840x1606 [SAR 1:1 DAR 1920:803], 23.98 fps, 23.98 tbr, 1k tbn, 47.95 tbc
    Metadata:
      title           : Looper (2012) - Release for ULTRAHDCLUB
      BPS             : 61000888
      BPS-eng         : 61000888
      DURATION        : 01:58:54.669000000
      DURATION-eng    : 01:58:54.669000000
      NUMBER_OF_FRAMES: 171061
      NUMBER_OF_FRAMES-eng: 171061
      NUMBER_OF_BYTES : 54402643430
      NUMBER_OF_BYTES-eng: 54402643430
      _STATISTICS_WRITING_APP: mkvmerge v8.5.1 ('Where you lead I will follow') 64bit
      _STATISTICS_WRITING_APP-eng: mkvmerge v8.5.1 ('Where you lead I will follow') 64bit
      _STATISTICS_WRITING_DATE_UTC: 2015-11-20 21:55:24
      _STATISTICS_WRITING_DATE_UTC-eng: 2015-11-20 21:55:24
      _STATISTICS_TAGS: BPS DURATION NUMBER_OF_FRAMES NUMBER_OF_BYTES
      _STATISTICS_TAGS-eng: BPS DURATION NUMBER_OF_FRAMES NUMBER_OF_BYTES
    Stream #0:1(eng): Audio: dts (DTS-HD MA), 48000 Hz, 5.1(side), s32p (24 bit)
    Metadata:
      title           : DTS-HD 5.1 - Blu-ray
      BPS             : 3650025
      BPS-eng         : 3650025
      DURATION        : 01:58:51.168000000
      DURATION-eng    : 01:58:51.168000000
      NUMBER_OF_FRAMES: 668547
      NUMBER_OF_FRAMES-eng: 668547
      NUMBER_OF_BYTES : 3253618340
      NUMBER_OF_BYTES-eng: 3253618340
      _STATISTICS_WRITING_APP: mkvmerge v8.5.1 ('Where you lead I will follow') 64bit
      _STATISTICS_WRITING_APP-eng: mkvmerge v8.5.1 ('Where you lead I will follow') 64bit
      _STATISTICS_WRITING_DATE_UTC: 2015-11-20 21:55:24
      _STATISTICS_WRITING_DATE_UTC-eng: 2015-11-20 21:55:24
      _STATISTICS_TAGS: BPS DURATION NUMBER_OF_FRAMES NUMBER_OF_BYTES
      _STATISTICS_TAGS-eng: BPS DURATION NUMBER_OF_FRAMES NUMBER_OF_BYTES
    Stream #0:2(hun): Audio: ac3, 48000 Hz, 5.1(side), fltp, 448 kb/s (default)
    Stream #0:3(hun): Subtitle: subrip (default)
    Metadata:
      title           : full
    Stream #0:4(hun): Subtitle: subrip
    Metadata:
      title           : forced
    Stream #0:5(eng): Subtitle: subrip
    Metadata:
      BPS             : 39
      BPS-eng         : 39
      DURATION        : 01:47:12.384000000
      DURATION-eng    : 01:47:12.384000000
      NUMBER_OF_FRAMES: 904
      NUMBER_OF_FRAMES-eng: 904
      NUMBER_OF_BYTES : 31360
      NUMBER_OF_BYTES-eng: 31360
      _STATISTICS_WRITING_APP: mkvmerge v8.5.1 ('Where you lead I will follow') 64bit
      _STATISTICS_WRITING_APP-eng: mkvmerge v8.5.1 ('Where you lead I will follow') 64bit
      _STATISTICS_WRITING_DATE_UTC: 2015-11-20 21:55:24
      _STATISTICS_WRITING_DATE_UTC-eng: 2015-11-20 21:55:24
      _STATISTICS_TAGS: BPS DURATION NUMBER_OF_FRAMES NUMBER_OF_BYTES
      _STATISTICS_TAGS-eng: BPS DURATION NUMBER_OF_FRAMES NUMBER_OF_BYTES
